<svg width="167" height="222" viewBox="0 0 167 222" fill="none" xmlns="http://www.w3.org/2000/svg">
<path d="M69.2472 171.431L21.4856 57.8082L117.009 57.8082L69.2472 171.431Z" fill="#D9D9D9"/>
<circle cx="69.2474" cy="49.8346" r="49.8346" fill="#D9D9D9"/>
<circle cx="69.2475" cy="49.8347" r="39.2033" fill="#A24747"/>
<circle cx="69.2476" cy="49.8346" r="25.914" fill="#D9D9D9"/>
<path d="M15.4258 210.634L0.807617 221.93L17.4192 211.963L18.0836 208.641L44.6621 192.03V182.727L69.2472 171.431L40.6753 182.063L42.0043 191.365L16.7547 205.983L15.4258 210.634Z" fill="#D9D9D9"/>
<path d="M46.6555 184.72L69.2472 171.431L44.6621 182.727V192.03L18.0836 208.641L17.4192 211.963L0.807617 221.93L18.7481 212.628V210.634L51.3067 191.365L46.6555 184.72Z" fill="#C7C7C7"/>
<path fill-rule="evenodd" clip-rule="evenodd" d="M103.135 164.122L69.2472 171.431L111.108 165.451L101.806 157.477L148.983 146.846L166.259 133.557L147.654 144.188L95.1612 153.491L103.135 164.122Z" fill="#D9D9D9"/>
<path d="M69.2472 171.431L118.417 166.78L108.45 158.806L148.983 148.175L166.259 133.557L148.983 146.846L101.806 157.477L111.108 165.451L69.2472 171.431Z" fill="#C7C7C7"/>
</svg>
