<svg width="128" height="128" viewBox="0 0 128 128" fill="none" xmlns="http://www.w3.org/2000/svg">
<path d="M64.2438 68.874L46.7268 27.2017L81.7608 27.2017L64.2438 68.874Z" fill="#D9D9D9"/>
<circle cx="64.2439" cy="24.2773" r="18.2773" fill="#D9D9D9"/>
<circle cx="64.2439" cy="24.2773" r="14.3782" fill="#A24747"/>
<circle cx="64.2437" cy="24.2773" r="9.5042" fill="#D9D9D9"/>
<path d="M44.5042 83.2521L39.1428 87.395L45.2353 83.7395L45.479 82.521L55.2269 76.4286V73.0168L64.2437 68.874L53.7647 72.7731L54.2521 76.1849L44.9916 81.5462L44.5042 83.2521Z" fill="#D9D9D9"/>
<path d="M55.9579 73.7479L64.2437 68.874L55.2269 73.0168V76.4286L45.479 82.521L45.2353 83.7395L39.1428 87.395L45.7227 83.9832V83.2521L57.6638 76.1849L55.9579 73.7479Z" fill="#C7C7C7"/>
<path fill-rule="evenodd" clip-rule="evenodd" d="M76.6722 66.1932L64.2437 68.8739L79.5966 66.6806L76.1848 63.7563L93.4873 59.8571L99.8235 54.9832L93 58.8823L73.7479 62.2941L76.6722 66.1932Z" fill="#D9D9D9"/>
<path d="M64.2437 68.8739L82.2773 67.168L78.6218 64.2437L93.4873 60.3445L99.8235 54.9832L93.4873 59.8571L76.1848 63.7563L79.5966 66.6806L64.2437 68.8739Z" fill="#C7C7C7"/>
<path d="M18.4697 110.775L18.5197 107.375C18.5197 107.142 18.7614 106.992 19.2447 106.925C19.7281 106.842 20.1281 106.8 20.4447 106.8L21.4197 106.875C22.0531 106.975 22.3697 107.15 22.3697 107.4L22.2697 115.225C21.9364 115.458 21.2614 115.692 20.2447 115.925C19.2447 116.142 18.0947 116.25 16.7947 116.25C14.3781 116.25 12.4281 115.467 10.9447 113.9C9.46139 112.333 8.71973 110.033 8.71973 107C8.71973 104.417 9.44473 102.317 10.8947 100.7C12.3447 99.0833 14.3531 98.275 16.9197 98.275C18.0864 98.275 19.1364 98.3917 20.0697 98.625C21.0197 98.8417 21.6697 99.1417 22.0197 99.525C22.0364 99.6583 22.0447 99.9083 22.0447 100.275C22.0447 100.642 21.9197 101.167 21.6697 101.85C21.4197 102.517 21.1364 103.017 20.8197 103.35C20.5031 103.683 20.2697 103.85 20.1197 103.85C19.9864 103.85 19.8364 103.792 19.6697 103.675C19.5197 103.542 19.2114 103.408 18.7447 103.275C18.2781 103.125 17.8281 103.05 17.3947 103.05C16.3614 103.05 15.5197 103.383 14.8697 104.05C14.2364 104.717 13.9197 105.75 13.9197 107.15C13.9197 108.55 14.2447 109.617 14.8947 110.35C15.5614 111.067 16.3197 111.425 17.1697 111.425C18.0364 111.425 18.4697 111.208 18.4697 110.775ZM34.0721 115.325C33.0221 115.942 31.6721 116.25 30.0221 116.25C28.3721 116.25 26.9804 115.692 25.8471 114.575C24.7137 113.442 24.1471 111.883 24.1471 109.9C24.1471 107.9 24.6887 106.292 25.7721 105.075C26.8721 103.858 28.2554 103.25 29.9221 103.25C31.5887 103.25 32.8721 103.675 33.7721 104.525C34.6887 105.375 35.1471 106.408 35.1471 107.625C35.1471 110.325 33.5971 111.675 30.4971 111.675H28.7721C28.7721 112.175 28.9054 112.525 29.1721 112.725C29.4554 112.908 29.8637 113 30.3971 113C31.5637 113 32.6721 112.733 33.7221 112.2C33.7387 112.183 33.8137 112.3 33.9471 112.55C34.3471 113.267 34.5471 113.875 34.5471 114.375C34.5471 114.858 34.3887 115.175 34.0721 115.325ZM30.9471 108.1C30.9471 107.4 30.6054 107.05 29.9221 107.05C29.6054 107.05 29.3304 107.15 29.0971 107.35C28.8804 107.533 28.7721 107.808 28.7721 108.175V108.95H30.1221C30.6721 108.95 30.9471 108.667 30.9471 108.1ZM37.8553 114.525C36.8219 113.375 36.3053 111.783 36.3053 109.75C36.3053 107.717 36.8219 106.125 37.8553 104.975C38.9053 103.825 40.3136 103.25 42.0803 103.25C43.8469 103.25 45.2469 103.825 46.2803 104.975C47.3136 106.125 47.8303 107.717 47.8303 109.75C47.8303 111.783 47.3136 113.375 46.2803 114.525C45.2469 115.675 43.8469 116.25 42.0803 116.25C40.3136 116.25 38.9053 115.675 37.8553 114.525ZM42.0803 107.425C41.1469 107.425 40.6803 108.192 40.6803 109.725C40.6803 111.258 41.1469 112.025 42.0803 112.025C43.0303 112.025 43.5053 111.258 43.5053 109.725C43.5053 108.192 43.0303 107.425 42.0803 107.425ZM58.9727 110.775L59.0227 107.375C59.0227 107.142 59.2643 106.992 59.7477 106.925C60.231 106.842 60.631 106.8 60.9477 106.8L61.9227 106.875C62.556 106.975 62.8727 107.15 62.8727 107.4L62.7727 115.225C62.4393 115.458 61.7643 115.692 60.7477 115.925C59.7477 116.142 58.5977 116.25 57.2977 116.25C54.881 116.25 52.931 115.467 51.4477 113.9C49.9643 112.333 49.2227 110.033 49.2227 107C49.2227 104.417 49.9477 102.317 51.3977 100.7C52.8477 99.0833 54.856 98.275 57.4227 98.275C58.5893 98.275 59.6393 98.3917 60.5727 98.625C61.5227 98.8417 62.1727 99.1417 62.5227 99.525C62.5393 99.6583 62.5477 99.9083 62.5477 100.275C62.5477 100.642 62.4227 101.167 62.1727 101.85C61.9227 102.517 61.6393 103.017 61.3227 103.35C61.006 103.683 60.7727 103.85 60.6227 103.85C60.4893 103.85 60.3393 103.792 60.1727 103.675C60.0227 103.542 59.7143 103.408 59.2477 103.275C58.781 103.125 58.331 103.05 57.8977 103.05C56.8643 103.05 56.0227 103.383 55.3727 104.05C54.7393 104.717 54.4227 105.75 54.4227 107.15C54.4227 108.55 54.7477 109.617 55.3977 110.35C56.0643 111.067 56.8227 111.425 57.6727 111.425C58.5393 111.425 58.9727 111.208 58.9727 110.775ZM66.7 106.925C66.2333 106.092 66 105.417 66 104.9C66 104.367 66.1417 104.025 66.425 103.875C67.375 103.458 68.675 103.25 70.325 103.25C71.9917 103.25 73.1667 103.642 73.85 104.425C74.5333 105.192 74.875 106.333 74.875 107.85V111.8H75.725C76.0083 111.8 76.225 111.967 76.375 112.3C76.5417 112.633 76.625 113.092 76.625 113.675C76.625 114.258 76.475 114.833 76.175 115.4C75.8917 115.967 75.5 116.25 75 116.25C74.1 116.25 73.375 116.008 72.825 115.525C72.575 115.325 72.3833 115.083 72.25 114.8C71.4833 115.767 70.2917 116.25 68.675 116.25C67.4583 116.25 66.4333 115.817 65.6 114.95C64.7667 114.083 64.35 113.058 64.35 111.875C64.35 109.158 65.975 107.8 69.225 107.8H70.6V107.55C70.6 107.117 70.525 106.842 70.375 106.725C70.2417 106.592 69.9167 106.525 69.4 106.525C68.7667 106.525 67.8667 106.658 66.7 106.925ZM68.7 111.525C68.7 111.892 68.8 112.175 69 112.375C69.2 112.558 69.45 112.65 69.75 112.65C70.0667 112.65 70.35 112.525 70.6 112.275V110.35H69.9C69.1 110.35 68.7 110.742 68.7 111.525ZM89.365 115.875C89.365 115.992 88.6484 116.05 87.215 116.05C85.7984 116.05 85.09 115.975 85.09 115.825V108.55C85.09 107.717 84.815 107.3 84.265 107.3C83.9817 107.3 83.6067 107.483 83.14 107.85V115.85C83.14 116.017 82.4234 116.1 80.99 116.1C79.5734 116.1 78.865 116.008 78.865 115.825V107.65H78.24C77.69 107.65 77.415 107.075 77.415 105.925C77.415 105.408 77.515 104.883 77.715 104.35C77.9817 103.617 78.415 103.25 79.015 103.25C79.615 103.25 80.19 103.408 80.74 103.725C81.3067 104.042 81.6484 104.342 81.765 104.625C82.7984 103.708 83.94 103.25 85.19 103.25C86.4567 103.25 87.4734 103.642 88.24 104.425C89.14 103.642 90.2234 103.25 91.49 103.25C94.24 103.25 95.615 104.925 95.615 108.275V115.875C95.615 115.992 94.8984 116.05 93.465 116.05C92.0484 116.05 91.34 115.975 91.34 115.825V108.55C91.34 107.717 91.065 107.3 90.515 107.3C90.215 107.3 89.8317 107.483 89.365 107.85V115.875ZM107.192 115.325C106.142 115.942 104.792 116.25 103.142 116.25C101.492 116.25 100.101 115.692 98.9672 114.575C97.8339 113.442 97.2672 111.883 97.2672 109.9C97.2672 107.9 97.8089 106.292 98.8922 105.075C99.9922 103.858 101.376 103.25 103.042 103.25C104.709 103.25 105.992 103.675 106.892 104.525C107.809 105.375 108.267 106.408 108.267 107.625C108.267 110.325 106.717 111.675 103.617 111.675H101.892C101.892 112.175 102.026 112.525 102.292 112.725C102.576 112.908 102.984 113 103.517 113C104.684 113 105.792 112.733 106.842 112.2C106.859 112.183 106.934 112.3 107.067 112.55C107.467 113.267 107.667 113.875 107.667 114.375C107.667 114.858 107.509 115.175 107.192 115.325ZM104.067 108.1C104.067 107.4 103.726 107.05 103.042 107.05C102.726 107.05 102.451 107.15 102.217 107.35C102.001 107.533 101.892 107.808 101.892 108.175V108.95H103.242C103.792 108.95 104.067 108.667 104.067 108.1ZM110.425 111.5C111.775 112.317 112.842 112.725 113.625 112.725C114.125 112.725 114.375 112.55 114.375 112.2C114.375 111.95 113.942 111.625 113.075 111.225C110.992 110.375 109.95 108.983 109.95 107.05C109.95 105.817 110.4 104.875 111.3 104.225C112.2 103.575 113.275 103.25 114.525 103.25C115.792 103.25 116.859 103.383 117.725 103.65C118.609 103.917 119.05 104.267 119.05 104.7C119.05 105.067 118.867 105.55 118.5 106.15C118.15 106.75 117.909 107.075 117.775 107.125C117.059 106.725 116.284 106.525 115.45 106.525C115 106.525 114.775 106.683 114.775 107C114.775 107.2 114.859 107.375 115.025 107.525C115.209 107.658 115.534 107.833 116 108.05C116.467 108.25 116.85 108.433 117.15 108.6C117.467 108.767 117.817 109 118.2 109.3C119 109.933 119.4 110.758 119.4 111.775C119.4 113.108 118.959 114.192 118.075 115.025C117.192 115.842 115.859 116.25 114.075 116.25C112.892 116.25 111.817 116.05 110.85 115.65C109.884 115.25 109.4 114.7 109.4 114C109.4 113.533 109.509 113.042 109.725 112.525C109.959 112.008 110.192 111.667 110.425 111.5Z" fill="white"/>
</svg>
